<?xml version="1.0" encoding="UTF-8" standalone="no"?>
<!-- Created with Inkscape (http://www.inkscape.org/) -->

<svg
   xmlns:dc="http://purl.org/dc/elements/1.1/"
   xmlns:cc="http://creativecommons.org/ns#"
   xmlns:rdf="http://www.w3.org/1999/02/22-rdf-syntax-ns#"
   xmlns:svg="http://www.w3.org/2000/svg"
   xmlns="http://www.w3.org/2000/svg"
   xmlns:sodipodi="http://sodipodi.sourceforge.net/DTD/sodipodi-0.dtd"
   xmlns:inkscape="http://www.inkscape.org/namespaces/inkscape"
   id="svg2985"
   version="1.1"
   inkscape:version="0.48.4 r9939"
   width="277.5"
   height="131.25"
   xml:space="preserve"
   sodipodi:docname="DAG_Layers.eps"><sodipodi:namedview
     pagecolor="#ffffff"
     bordercolor="#666666"
     borderopacity="1"
     objecttolerance="10"
     gridtolerance="10"
     guidetolerance="10"
     inkscape:pageopacity="0"
     inkscape:pageshadow="2"
     inkscape:window-width="1366"
     inkscape:window-height="705"
     id="namedview2987"
     showgrid="false"
     inkscape:zoom="3.38"
     inkscape:cx="98.091375"
     inkscape:cy="65.625"
     inkscape:window-x="1016"
     inkscape:window-y="-8"
     inkscape:window-maximized="1"
     inkscape:current-layer="g2993"
     inkscape:snap-global="false" /><metadata
     id="metadata2991"><rdf:RDF><cc:Work
         rdf:about=""><dc:format>image/svg+xml</dc:format><dc:type
           rdf:resource="http://purl.org/dc/dcmitype/StillImage" /><dc:title></dc:title></cc:Work></rdf:RDF></metadata><defs
     id="defs2989"><marker
       style="overflow:visible;"
       id="Arrow1Mend"
       refX="0.0"
       refY="0.0"
       orient="auto"
       inkscape:stockid="Arrow1Mend"><path
         transform="scale(0.4) rotate(180) translate(10,0)"
         style="fill-rule:evenodd;stroke:#000000;stroke-width:1.0pt;"
         d="M 0.0,0.0 L 5.0,-5.0 L -12.5,0.0 L 5.0,5.0 L 0.0,0.0 z "
         id="path5061" /></marker><marker
       style="overflow:visible"
       id="Arrow1Mstart"
       refX="0.0"
       refY="0.0"
       orient="auto"
       inkscape:stockid="Arrow1Mstart"><path
         transform="scale(0.4) translate(10,0)"
         style="fill-rule:evenodd;stroke:#000000;stroke-width:1.0pt"
         d="M 0.0,0.0 L 5.0,-5.0 L -12.5,0.0 L 5.0,5.0 L 0.0,0.0 z "
         id="path5058" /></marker><marker
       style="overflow:visible"
       id="Arrow1Lstart"
       refX="0.0"
       refY="0.0"
       orient="auto"
       inkscape:stockid="Arrow1Lstart"><path
         transform="scale(0.8) translate(12.5,0)"
         style="fill-rule:evenodd;stroke:#000000;stroke-width:1.0pt"
         d="M 0.0,0.0 L 5.0,-5.0 L -12.5,0.0 L 5.0,5.0 L 0.0,0.0 z "
         id="path5052" /></marker><clipPath
       id="clipPath3001"
       clipPathUnits="userSpaceOnUse"><path
         id="path3003"
         d="m 0,1046.28 2220,0 0,-1039.99875 -2220,0 L 0,1046.28 z" /></clipPath><pattern
       id="pattern3201"
       height="994"
       width="6494"
       y="0"
       x="0"
       patternUnits="userSpaceOnUse"
       patternTransform="matrix(0.008,0,0,0.008,49.6,-46.1)"><g
         id="g3203"
         transform="scale(0.1,0.1)" /></pattern><pattern
       id="pattern3225"
       height="994"
       width="6494"
       y="0"
       x="0"
       patternUnits="userSpaceOnUse"
       patternTransform="matrix(0.008,0,0,0.008,59.6,-81.2)"><g
         id="g3227"
         transform="scale(0.1,0.1)" /></pattern><pattern
       id="pattern3237"
       height="994"
       width="6494"
       y="0"
       x="0"
       patternUnits="userSpaceOnUse"
       patternTransform="matrix(0.008,0,0,0.008,57.4,-80.5)"><g
         id="g3239"
         transform="scale(0.1,0.1)" /></pattern><pattern
       id="pattern3249"
       height="994"
       width="6494"
       y="0"
       x="0"
       patternUnits="userSpaceOnUse"
       patternTransform="matrix(0.008,0,0,0.008,59,-80.2)"><g
         id="g3251"
         transform="scale(0.1,0.1)" /></pattern><pattern
       id="pattern3261"
       height="994"
       width="6494"
       y="0"
       x="0"
       patternUnits="userSpaceOnUse"
       patternTransform="matrix(0.008,0,0,0.008,65.5,-130.6)"><g
         id="g3263"
         transform="scale(0.1,0.1)" /></pattern><pattern
       id="pattern3273"
       height="994"
       width="6494"
       y="0"
       x="0"
       patternUnits="userSpaceOnUse"
       patternTransform="matrix(0.008,0,0,0.008,63.7,-113.3)"><g
         id="g3275"
         transform="scale(0.1,0.1)" /></pattern><pattern
       id="pattern3285"
       height="994"
       width="6494"
       y="0"
       x="0"
       patternUnits="userSpaceOnUse"
       patternTransform="matrix(0.008,0,0,0.008,57.6,-87)"><g
         id="g3287"
         transform="scale(0.1,0.1)" /></pattern><pattern
       id="pattern3297"
       height="994"
       width="6494"
       y="0"
       x="0"
       patternUnits="userSpaceOnUse"
       patternTransform="matrix(0.008,0,0,0.008,61.7,-140.9)"><g
         id="g3299"
         transform="scale(0.1,0.1)" /></pattern><marker
       style="overflow:visible;"
       id="Arrow1MendT"
       refX="0.0"
       refY="0.0"
       orient="auto"
       inkscape:stockid="Arrow1MendT"><path
         transform="scale(0.4) rotate(180) translate(10,0)"
         style="stroke:#ff0000;stroke-width:1.0pt;fill:#ff0000;fill-rule:evenodd"
         d="M 0.0,0.0 L 5.0,-5.0 L -12.5,0.0 L 5.0,5.0 L 0.0,0.0 z "
         id="path6276" /></marker><marker
       style="overflow:visible"
       id="Arrow1MendT-2"
       refX="0"
       refY="0"
       orient="auto"
       inkscape:stockid="Arrow1MendT"><path
         inkscape:connector-curvature="0"
         transform="matrix(-0.4,0,0,-0.4,-4,0)"
         style="fill:#ff0000;fill-rule:evenodd;stroke:#ff0000;stroke-width:1pt"
         d="M 0,0 5,-5 -12.5,0 5,5 0,0 z"
         id="path6276-3" /></marker><marker
       style="overflow:visible;"
       id="Arrow1MendN"
       refX="0.0"
       refY="0.0"
       orient="auto"
       inkscape:stockid="Arrow1MendN"><path
         transform="scale(0.4) rotate(180) translate(10,0)"
         style="stroke:#ff0000;stroke-width:1.0pt;fill:#ff0000;fill-rule:evenodd"
         d="M 0.0,0.0 L 5.0,-5.0 L -12.5,0.0 L 5.0,5.0 L 0.0,0.0 z "
         id="path7994" /></marker><marker
       style="overflow:visible;"
       id="Arrow1MendO"
       refX="0.0"
       refY="0.0"
       orient="auto"
       inkscape:stockid="Arrow1MendO"><path
         transform="scale(0.4) rotate(180) translate(10,0)"
         style="stroke:#ff0000;stroke-width:1.0pt;fill:#ff0000;fill-rule:evenodd"
         d="M 0.0,0.0 L 5.0,-5.0 L -12.5,0.0 L 5.0,5.0 L 0.0,0.0 z "
         id="path8135" /></marker><marker
       style="overflow:visible;"
       id="Arrow1MendQ"
       refX="0.0"
       refY="0.0"
       orient="auto"
       inkscape:stockid="Arrow1MendQ"><path
         transform="scale(0.4) rotate(180) translate(10,0)"
         style="stroke:#ff0000;stroke-width:1.0pt;fill:#ff0000;fill-rule:evenodd"
         d="M 0.0,0.0 L 5.0,-5.0 L -12.5,0.0 L 5.0,5.0 L 0.0,0.0 z "
         id="path8138" /></marker><marker
       style="overflow:visible;"
       id="Arrow1MendB"
       refX="0.0"
       refY="0.0"
       orient="auto"
       inkscape:stockid="Arrow1MendB"><path
         transform="scale(0.4) rotate(180) translate(10,0)"
         style="stroke:#ff0000;stroke-width:1.0pt;fill:#ff0000;fill-rule:evenodd"
         d="M 0.0,0.0 L 5.0,-5.0 L -12.5,0.0 L 5.0,5.0 L 0.0,0.0 z "
         id="path8287" /></marker><marker
       style="overflow:visible;"
       id="Arrow1Mendi"
       refX="0.0"
       refY="0.0"
       orient="auto"
       inkscape:stockid="Arrow1Mendi"><path
         transform="scale(0.4) rotate(180) translate(10,0)"
         style="stroke:#ff0000;stroke-width:1.0pt;fill:#ff0000;fill-rule:evenodd"
         d="M 0.0,0.0 L 5.0,-5.0 L -12.5,0.0 L 5.0,5.0 L 0.0,0.0 z "
         id="path8290" /></marker><marker
       style="overflow:visible;"
       id="Arrow1Mendl"
       refX="0.0"
       refY="0.0"
       orient="auto"
       inkscape:stockid="Arrow1Mendl"><path
         transform="scale(0.4) rotate(180) translate(10,0)"
         style="stroke:#ff0000;stroke-width:1.0pt;fill:#ff0000;fill-rule:evenodd"
         d="M 0.0,0.0 L 5.0,-5.0 L -12.5,0.0 L 5.0,5.0 L 0.0,0.0 z "
         id="path8293" /></marker><marker
       style="overflow:visible;"
       id="Arrow1MendT7"
       refX="0.0"
       refY="0.0"
       orient="auto"
       inkscape:stockid="Arrow1MendT7"><path
         transform="scale(0.4) rotate(180) translate(10,0)"
         style="stroke:#ff0000;stroke-width:1.0pt;fill:#ff0000;fill-rule:evenodd"
         d="M 0.0,0.0 L 5.0,-5.0 L -12.5,0.0 L 5.0,5.0 L 0.0,0.0 z "
         id="path8296" /></marker><marker
       style="overflow:visible;"
       id="Arrow1MendC"
       refX="0.0"
       refY="0.0"
       orient="auto"
       inkscape:stockid="Arrow1MendC"><path
         transform="scale(0.4) rotate(180) translate(10,0)"
         style="stroke:#ff0000;stroke-width:1.0pt;fill:#ff0000;fill-rule:evenodd"
         d="M 0.0,0.0 L 5.0,-5.0 L -12.5,0.0 L 5.0,5.0 L 0.0,0.0 z "
         id="path8299" /></marker><marker
       style="overflow:visible;"
       id="Arrow1Mendu"
       refX="0.0"
       refY="0.0"
       orient="auto"
       inkscape:stockid="Arrow1Mendu"><path
         transform="scale(0.4) rotate(180) translate(10,0)"
         style="stroke:#ff0000;stroke-width:1.0pt;fill:#ff0000;fill-rule:evenodd"
         d="M 0.0,0.0 L 5.0,-5.0 L -12.5,0.0 L 5.0,5.0 L 0.0,0.0 z "
         id="path10899" /></marker><marker
       style="overflow:visible;"
       id="Arrow1Mend5"
       refX="0.0"
       refY="0.0"
       orient="auto"
       inkscape:stockid="Arrow1Mend5"><path
         transform="scale(0.4) rotate(180) translate(10,0)"
         style="stroke:#ff0000;stroke-width:1.0pt;fill:#ff0000;fill-rule:evenodd"
         d="M 0.0,0.0 L 5.0,-5.0 L -12.5,0.0 L 5.0,5.0 L 0.0,0.0 z "
         id="path10902" /></marker><marker
       style="overflow:visible"
       id="Arrow1MendT-2s"
       refX="0"
       refY="0"
       orient="auto"
       inkscape:stockid="Arrow1MendT-2s"><path
         inkscape:connector-curvature="0"
         transform="matrix(-0.4,0,0,-0.4,-4,0)"
         style="stroke-width:1pt;stroke:#ff0000;fill-rule:evenodd;fill:#ff0000"
         d="M 0,0 5,-5 -12.5,0 5,5 0,0 z"
         id="path10905" /></marker><marker
       style="overflow:visible;"
       id="Arrow1MendK"
       refX="0.0"
       refY="0.0"
       orient="auto"
       inkscape:stockid="Arrow1MendK"><path
         transform="scale(0.4) rotate(180) translate(10,0)"
         style="stroke:#ff0000;stroke-width:1.0pt;fill:#ff0000;fill-rule:evenodd"
         d="M 0.0,0.0 L 5.0,-5.0 L -12.5,0.0 L 5.0,5.0 L 0.0,0.0 z "
         id="path11102" /></marker><marker
       style="overflow:visible;"
       id="Arrow1Mendp"
       refX="0.0"
       refY="0.0"
       orient="auto"
       inkscape:stockid="Arrow1Mendp"><path
         transform="scale(0.4) rotate(180) translate(10,0)"
         style="stroke:#ff0000;stroke-width:1.0pt;fill:#ff0000;fill-rule:evenodd"
         d="M 0.0,0.0 L 5.0,-5.0 L -12.5,0.0 L 5.0,5.0 L 0.0,0.0 z "
         id="path11105" /></marker><marker
       style="overflow:visible;"
       id="Arrow1Mend3"
       refX="0.0"
       refY="0.0"
       orient="auto"
       inkscape:stockid="Arrow1Mend3"><path
         transform="scale(0.4) rotate(180) translate(10,0)"
         style="stroke:#ff0000;stroke-width:1.0pt;fill:#ff0000;fill-rule:evenodd"
         d="M 0.0,0.0 L 5.0,-5.0 L -12.5,0.0 L 5.0,5.0 L 0.0,0.0 z "
         id="path11108" /></marker><marker
       style="overflow:visible;"
       id="Arrow1Mendz"
       refX="0.0"
       refY="0.0"
       orient="auto"
       inkscape:stockid="Arrow1Mendz"><path
         transform="scale(0.4) rotate(180) translate(10,0)"
         style="stroke:#ff0000;stroke-width:1.0pt;fill:#ff0000;fill-rule:evenodd"
         d="M 0.0,0.0 L 5.0,-5.0 L -12.5,0.0 L 5.0,5.0 L 0.0,0.0 z "
         id="path11111" /></marker><marker
       style="overflow:visible;"
       id="Arrow1Mendn"
       refX="0.0"
       refY="0.0"
       orient="auto"
       inkscape:stockid="Arrow1Mendn"><path
         transform="scale(0.4) rotate(180) translate(10,0)"
         style="stroke:#ff0000;stroke-width:1.0pt;fill:#ff0000;fill-rule:evenodd"
         d="M 0.0,0.0 L 5.0,-5.0 L -12.5,0.0 L 5.0,5.0 L 0.0,0.0 z "
         id="path11324" /></marker><marker
       style="overflow:visible;"
       id="Arrow1MenduE"
       refX="0.0"
       refY="0.0"
       orient="auto"
       inkscape:stockid="Arrow1MenduE"><path
         transform="scale(0.4) rotate(180) translate(10,0)"
         style="stroke:#ff0000;stroke-width:1.0pt;fill:#ff0000;fill-rule:evenodd"
         d="M 0.0,0.0 L 5.0,-5.0 L -12.5,0.0 L 5.0,5.0 L 0.0,0.0 z "
         id="path11327" /></marker><marker
       style="overflow:visible;"
       id="Arrow1Mendq"
       refX="0.0"
       refY="0.0"
       orient="auto"
       inkscape:stockid="Arrow1Mendq"><path
         transform="scale(0.4) rotate(180) translate(10,0)"
         style="stroke:#ff0000;stroke-width:1.0pt;fill:#ff0000;fill-rule:evenodd"
         d="M 0.0,0.0 L 5.0,-5.0 L -12.5,0.0 L 5.0,5.0 L 0.0,0.0 z "
         id="path4281" /></marker><marker
       style="overflow:visible;"
       id="Arrow1Mendx"
       refX="0.0"
       refY="0.0"
       orient="auto"
       inkscape:stockid="Arrow1Mendx"><path
         transform="scale(0.4) rotate(180) translate(10,0)"
         style="stroke:#ff0000;stroke-width:1.0pt;fill:#ff0000;fill-rule:evenodd"
         d="M 0.0,0.0 L 5.0,-5.0 L -12.5,0.0 L 5.0,5.0 L 0.0,0.0 z "
         id="path4738" /></marker></defs><g
     transform="matrix(1.25,0,0,-1.25,0,131.25)"
     inkscape:label="ink_ext_XXXXXX"
     inkscape:groupmode="layer"
     id="g2993"><g
   transform="scale(0.1,0.1)"
   id="g2995" /><path
   transform="matrix(0.71613922,0,0,-0.71613922,35.462037,84.450735)"
   d="m 32.223304,31.934891 c 0,2.257757 -1.937937,4.088031 -4.328504,4.088031 -2.390566,0 -4.328503,-1.830274 -4.328503,-4.088031 0,-2.257758 1.937937,-4.088032 4.328503,-4.088032 2.390567,0 4.328504,1.830274 4.328504,4.088032 z"
   sodipodi:ry="4.0880313"
   sodipodi:rx="4.3285036"
   sodipodi:cy="31.934891"
   sodipodi:cx="27.8948"
   id="path4844"
   style="fill:#0000ff;fill-opacity:1;stroke:#000000;stroke-opacity:1"
   sodipodi:type="arc" /><path
   transform="matrix(0.71613922,0,0,-0.71613922,35.462037,69.123621)"
   d="m 32.223304,31.934891 c 0,2.257757 -1.937937,4.088031 -4.328504,4.088031 -2.390566,0 -4.328503,-1.830274 -4.328503,-4.088031 0,-2.257758 1.937937,-4.088032 4.328503,-4.088032 2.390567,0 4.328504,1.830274 4.328504,4.088032 z"
   sodipodi:ry="4.0880313"
   sodipodi:rx="4.3285036"
   sodipodi:cy="31.934891"
   sodipodi:cx="27.8948"
   id="path4844-2"
   style="fill:#0000ff;fill-opacity:1;stroke:#000000;stroke-opacity:1"
   sodipodi:type="arc" /><path
   transform="matrix(0.71613922,0,0,-0.71613922,76.019059,76.787176)"
   d="m 32.223304,31.934891 c 0,2.257757 -1.937937,4.088031 -4.328504,4.088031 -2.390566,0 -4.328503,-1.830274 -4.328503,-4.088031 0,-2.257758 1.937937,-4.088032 4.328503,-4.088032 2.390567,0 4.328504,1.830274 4.328504,4.088032 z"
   sodipodi:ry="4.0880313"
   sodipodi:rx="4.3285036"
   sodipodi:cy="31.934891"
   sodipodi:cx="27.8948"
   id="path4844-1"
   style="fill:#00ff00;fill-opacity:1;stroke:#000000;stroke-opacity:1"
   sodipodi:type="arc" /><path
   transform="matrix(0.71613922,0,0,-0.71613922,76.019059,94.110641)"
   d="m 32.223304,31.934891 c 0,2.257757 -1.937937,4.088031 -4.328504,4.088031 -2.390566,0 -4.328503,-1.830274 -4.328503,-4.088031 0,-2.257758 1.937937,-4.088032 4.328503,-4.088032 2.390567,0 4.328504,1.830274 4.328504,4.088032 z"
   sodipodi:ry="4.0880313"
   sodipodi:rx="4.3285036"
   sodipodi:cy="31.934891"
   sodipodi:cx="27.8948"
   id="path4844-95"
   style="fill:#00ff00;fill-opacity:1;stroke:#000000;stroke-opacity:1"
   sodipodi:type="arc" /><path
   transform="matrix(0.71613922,0,0,-0.71613922,76.019059,59.463716)"
   d="m 32.223304,31.934891 c 0,2.257757 -1.937937,4.088031 -4.328504,4.088031 -2.390566,0 -4.328503,-1.830274 -4.328503,-4.088031 0,-2.257758 1.937937,-4.088032 4.328503,-4.088032 2.390567,0 4.328504,1.830274 4.328504,4.088032 z"
   sodipodi:ry="4.0880313"
   sodipodi:rx="4.3285036"
   sodipodi:cy="31.934891"
   sodipodi:cx="27.8948"
   id="path4844-4"
   style="fill:#00ff00;fill-opacity:1;stroke:#000000;stroke-opacity:1"
   sodipodi:type="arc" /><text
   transform="scale(1,-1)"
   sodipodi:linespacing="10%"
   id="text4988"
   y="-27.842884"
   x="50.821106"
   style="font-size:8px;font-style:oblique;font-variant:normal;font-weight:normal;font-stretch:normal;text-align:start;line-height:10.00000015%;letter-spacing:0px;word-spacing:0px;writing-mode:lr-tb;text-anchor:start;fill:#000000;fill-opacity:1;stroke:none;font-family:Sans;-inkscape-font-specification:Sans Oblique"
   xml:space="preserve"><tspan
     style="font-size:8px;font-style:oblique;font-variant:normal;font-weight:normal;font-stretch:normal;text-align:start;line-height:10.00000015%;writing-mode:lr-tb;text-anchor:start;font-family:Sans;-inkscape-font-specification:Sans Oblique"
     y="-27.842884"
     x="50.821106"
     id="tspan4990"
     sodipodi:role="line">V<tspan
   id="tspan4994"
   style="font-size:8px;font-style:oblique;font-variant:normal;font-weight:normal;font-stretch:normal;text-align:start;line-height:10.00000015%;writing-mode:lr-tb;text-anchor:start;baseline-shift:sub;font-family:Sans;-inkscape-font-specification:Sans Oblique">0</tspan></tspan></text>














<text
   transform="scale(1,-1)"
   sodipodi:linespacing="10%"
   id="text4988-6"
   y="-26.145227"
   x="92.15152"
   style="font-size:8px;font-style:oblique;font-variant:normal;font-weight:normal;font-stretch:normal;text-align:start;line-height:10%;letter-spacing:0px;word-spacing:0px;writing-mode:lr;text-anchor:start;fill:#000000;fill-opacity:1;stroke:none;font-family:Sans;-inkscape-font-specification:Sans Oblique"
   xml:space="preserve"><tspan
     style="font-size:8px;font-style:oblique;font-variant:normal;font-weight:normal;font-stretch:normal;text-align:start;line-height:10%;writing-mode:lr;text-anchor:start;font-family:Sans;-inkscape-font-specification:Sans Oblique"
     y="-26.145227"
     x="92.15152"
     id="tspan4990-1"
     sodipodi:role="line">V<tspan
   id="tspan4994-3"
   style="font-size:8px;font-style:oblique;font-variant:normal;font-weight:normal;font-stretch:normal;text-align:start;line-height:10%;writing-mode:lr;text-anchor:start;baseline-shift:sub;font-family:Sans;-inkscape-font-specification:Sans Oblique">1</tspan></tspan></text>














<text
   transform="scale(1,-1)"
   sodipodi:linespacing="10%"
   id="text4988-8"
   y="-26.145227"
   x="130.5966"
   style="font-size:8px;font-style:oblique;font-variant:normal;font-weight:normal;font-stretch:normal;text-align:start;line-height:10.00000015%;letter-spacing:0px;word-spacing:0px;writing-mode:lr-tb;text-anchor:start;fill:#000000;fill-opacity:1;stroke:none;font-family:Sans;-inkscape-font-specification:Sans Oblique"
   xml:space="preserve"><tspan
     style="font-size:8px;font-style:oblique;font-variant:normal;font-weight:normal;font-stretch:normal;text-align:start;line-height:10.00000015%;writing-mode:lr-tb;text-anchor:start;font-family:Sans;-inkscape-font-specification:Sans Oblique"
     y="-26.145227"
     x="130.5966"
     id="tspan4990-9"
     sodipodi:role="line">V<tspan
   id="tspan4994-34"
   style="font-size:8px;font-style:oblique;font-variant:normal;font-weight:normal;font-stretch:normal;text-align:start;line-height:10.00000015%;writing-mode:lr-tb;text-anchor:start;baseline-shift:sub;font-family:Sans;-inkscape-font-specification:Sans Oblique">2</tspan></tspan></text>














<text
   transform="scale(1,-1)"
   sodipodi:linespacing="10%"
   id="text4988-4"
   y="-27.842884"
   x="171.30403"
   style="font-size:8px;font-style:oblique;font-variant:normal;font-weight:normal;font-stretch:normal;text-align:start;line-height:10.00000015%;letter-spacing:0px;word-spacing:0px;writing-mode:lr-tb;text-anchor:start;fill:#000000;fill-opacity:1;stroke:none;font-family:Sans;-inkscape-font-specification:Sans Oblique"
   xml:space="preserve"><tspan
     style="font-size:8px;font-style:oblique;font-variant:normal;font-weight:normal;font-stretch:normal;text-align:start;line-height:10.00000015%;writing-mode:lr-tb;text-anchor:start;font-family:Sans;-inkscape-font-specification:Sans Oblique"
     y="-27.842884"
     x="171.30403"
     id="tspan4990-6"
     sodipodi:role="line">V<tspan
   id="tspan4994-0"
   style="font-size:8px;font-style:oblique;font-variant:normal;font-weight:normal;font-stretch:normal;text-align:start;line-height:10.00000015%;writing-mode:lr-tb;text-anchor:start;baseline-shift:sub;font-family:Sans;-inkscape-font-specification:Sans Oblique">3</tspan></tspan></text>























<path
   transform="matrix(0.71613922,0,0,-0.71613922,114.81423,76.735648)"
   d="m 32.223304,31.934891 c 0,2.257757 -1.937937,4.088031 -4.328504,4.088031 -2.390566,0 -4.328503,-1.830274 -4.328503,-4.088031 0,-2.257758 1.937937,-4.088032 4.328503,-4.088032 2.390567,0 4.328504,1.830274 4.328504,4.088032 z"
   sodipodi:ry="4.0880313"
   sodipodi:rx="4.3285036"
   sodipodi:cy="31.934891"
   sodipodi:cx="27.8948"
   id="path4844-1-6"
   style="fill:#a0eded;fill-opacity:1;stroke:#000000;stroke-opacity:1"
   sodipodi:type="arc" /><path
   transform="matrix(0.71613922,0,0,-0.71613922,114.81423,94.059113)"
   d="m 32.223304,31.934891 c 0,2.257757 -1.937937,4.088031 -4.328504,4.088031 -2.390566,0 -4.328503,-1.830274 -4.328503,-4.088031 0,-2.257758 1.937937,-4.088032 4.328503,-4.088032 2.390567,0 4.328504,1.830274 4.328504,4.088032 z"
   sodipodi:ry="4.0880313"
   sodipodi:rx="4.3285036"
   sodipodi:cy="31.934891"
   sodipodi:cx="27.8948"
   id="path4844-95-4"
   style="fill:#a0eded;fill-opacity:1;stroke:#000000;stroke-opacity:1"
   sodipodi:type="arc" /><path
   transform="matrix(0.71613922,0,0,-0.71613922,114.81423,59.412188)"
   d="m 32.223304,31.934891 c 0,2.257757 -1.937937,4.088031 -4.328504,4.088031 -2.390566,0 -4.328503,-1.830274 -4.328503,-4.088031 0,-2.257758 1.937937,-4.088032 4.328503,-4.088032 2.390567,0 4.328504,1.830274 4.328504,4.088032 z"
   sodipodi:ry="4.0880313"
   sodipodi:rx="4.3285036"
   sodipodi:cy="31.934891"
   sodipodi:cx="27.8948"
   id="path4844-4-7"
   style="fill:#a0eded;fill-opacity:1;stroke:#000000;stroke-opacity:1"
   sodipodi:type="arc" /><path
   transform="matrix(0.71613922,0,0,-0.71613922,155.20328,84.399207)"
   d="m 32.223304,31.934891 c 0,2.257757 -1.937937,4.088031 -4.328504,4.088031 -2.390566,0 -4.328503,-1.830274 -4.328503,-4.088031 0,-2.257758 1.937937,-4.088032 4.328503,-4.088032 2.390567,0 4.328504,1.830274 4.328504,4.088032 z"
   sodipodi:ry="4.0880313"
   sodipodi:rx="4.3285036"
   sodipodi:cy="31.934891"
   sodipodi:cx="27.8948"
   id="path4844-3"
   style="fill:#ffff00;fill-opacity:1;stroke:#000000;stroke-opacity:1"
   sodipodi:type="arc" /><path
   transform="matrix(0.71613922,0,0,-0.71613922,155.20328,69.072093)"
   d="m 32.223304,31.934891 c 0,2.257757 -1.937937,4.088031 -4.328504,4.088031 -2.390566,0 -4.328503,-1.830274 -4.328503,-4.088031 0,-2.257758 1.937937,-4.088032 4.328503,-4.088032 2.390567,0 4.328504,1.830274 4.328504,4.088032 z"
   sodipodi:ry="4.0880313"
   sodipodi:rx="4.3285036"
   sodipodi:cy="31.934891"
   sodipodi:cx="27.8948"
   id="path4844-2-2"
   style="fill:#ffff00;fill-opacity:1;stroke:#000000;stroke-opacity:1"
   sodipodi:type="arc" /><path
   style="fill:none;stroke:#ff0000;stroke-width:0.69999999999999996;stroke-linecap:butt;stroke-linejoin:miter;stroke-opacity:1;stroke-miterlimit:4;stroke-dasharray:none;marker-end:url(#Arrow1MendC)"
   d="M 164.20118,41.900888 123.9645,41.60503"
   id="path5376"
   inkscape:connector-curvature="0"
   transform="matrix(0.8,0,0,-0.8,0,105)" /><path
   style="fill:none;stroke:#ff0000;stroke-width:0.69999999999999996;stroke-linecap:butt;stroke-linejoin:miter;stroke-opacity:1;stroke-miterlimit:4;stroke-dasharray:none;marker-end:url(#Arrow1MendC)"
   d="M 163.60947,63.794379 124.55621,63.498521"
   id="path5378"
   inkscape:connector-curvature="0"
   transform="matrix(0.8,0,0,-0.8,0,105)" /><path
   style="fill:none;stroke:#ff0000;stroke-width:0.56000000000000005;stroke-linecap:butt;stroke-linejoin:miter;stroke-miterlimit:4;stroke-opacity:1;stroke-dasharray:none;marker-end:url(#Arrow1MendC)"
   d="m 131.12426,35.976331 -31.00592,0"
   id="path5380"
   inkscape:connector-curvature="0" /><path
   style="fill:none;stroke:#ff0000;stroke-width:0.56000000000000005;stroke-linecap:butt;stroke-linejoin:miter;stroke-miterlimit:4;stroke-opacity:1;stroke-dasharray:none;marker-end:url(#Arrow1MendC)"
   d="m 171.12426,61.301775 -32.42604,8.994083"
   id="path5382"
   inkscape:connector-curvature="0" /><path
   style="fill:none;stroke:#ff0000;stroke-width:0.63999998999999996;stroke-linecap:butt;stroke-linejoin:miter;stroke-miterlimit:4;stroke-opacity:1;stroke-dasharray:none;marker-end:url(#Arrow1MendC)"
   d="M 172.54438,61.065089 138.69823,54.43787"
   id="path5384"
   inkscape:connector-curvature="0" /><path
   style="fill:none;stroke:#ff0000;stroke-width:0.63999998999999996;stroke-linecap:butt;stroke-linejoin:miter;stroke-miterlimit:4;stroke-opacity:1;stroke-dasharray:none;marker-end:url(#Arrow1MendC)"
   d="m 172.071,45.680474 -33.60946,6.627218"
   id="path5386"
   inkscape:connector-curvature="0" /><path
   style="fill:none;stroke:#ff0000;stroke-width:0.63999998999999996;stroke-linecap:butt;stroke-linejoin:miter;stroke-miterlimit:4;stroke-opacity:1;stroke-dasharray:none;marker-end:url(#Arrow1MendC)"
   d="M 172.071,44.970414 138.93492,36.923077"
   id="path5388"
   inkscape:connector-curvature="0" /><path
   style="fill:none;stroke:#ff0000;stroke-width:0.56000000000000005;stroke-linecap:butt;stroke-linejoin:miter;stroke-miterlimit:4;stroke-opacity:1;stroke-dasharray:none;marker-end:url(#Arrow1MendC)"
   d="M 92.781064,71.895858 59.408284,63.848521"
   id="path5390"
   inkscape:connector-curvature="0" /><path
   style="fill:none;stroke:#ff0000;stroke-width:0.63999998999999996;stroke-linecap:butt;stroke-linejoin:miter;stroke-miterlimit:4;stroke-opacity:1;stroke-dasharray:none;marker-end:url(#Arrow1MendC)"
   d="M 92.781069,53.491124 59.408284,59.881657"
   id="path5392"
   inkscape:connector-curvature="0" /><path
   style="fill:none;stroke:#ff0000;stroke-width:0.67032325000000004;stroke-linecap:butt;stroke-linejoin:miter;stroke-miterlimit:4;stroke-opacity:1;stroke-dasharray:none;marker-end:url(#Arrow1MendC)"
   d="M 93.23928,53.00259 59.436329,46.432236"
   id="path5394"
   inkscape:connector-curvature="0" /><path
   style="fill:none;stroke:#ff0000;stroke-width:0.63999998999999996;stroke-linecap:butt;stroke-linejoin:miter;stroke-miterlimit:4;stroke-opacity:1;stroke-dasharray:none;marker-end:url(#Arrow1MendC)"
   d="M 92.544379,36.68639 58.934911,44.023669"
   id="path5396"
   inkscape:connector-curvature="0" /><path
   style="fill:none;stroke:#ff0000;stroke-width:0.69999999999999996;stroke-linecap:butt;stroke-linejoin:miter;stroke-opacity:1;stroke-miterlimit:4;stroke-dasharray:none;marker-end:url(#Arrow1MendC)"
   d="M 164.7929,44.563609 73.964497,54.326923"
   id="path5398"
   inkscape:connector-curvature="0"
   transform="matrix(0.8,0,0,-0.8,0,105)" /><path
   style="fill:none;stroke:#ff0000;stroke-width:0.61883818999999995;stroke-linecap:butt;stroke-linejoin:miter;stroke-miterlimit:4;stroke-opacity:1;stroke-dasharray:none;marker-end:url(#Arrow1MendC)"
   d="M 171.13484,45.454368 99.629874,38.528629"
   id="path5400"
   inkscape:connector-curvature="0" /><path
   sodipodi:type="arc"
   style="fill:#ffffff;fill-opacity:0;stroke:#000000;stroke-width:0.898633;stroke-miterlimit:4;stroke-opacity:1;stroke-dasharray:2.69589905, 2.69589905;stroke-dashoffset:0"
   id="path8903"
   sodipodi:cx="221.44971"
   sodipodi:cy="70.74704"
   sodipodi:rx="21.153847"
   sodipodi:ry="40.97633"
   d="m 242.60355,70.74704 c 0,22.630602 -9.4709,40.97633 -21.15384,40.97633 -11.68295,0 -21.15385,-18.345728 -21.15385,-40.97633 0,-22.630602 9.4709,-40.97633 21.15385,-40.97633 11.68294,0 21.15384,18.345728 21.15384,40.97633 z"
   transform="matrix(0.67287925,0,0,-0.76325535,27.322448,104.41226)" /><path
   sodipodi:type="arc"
   style="fill:#ffffff;fill-opacity:0;stroke:#000000;stroke-width:0.898633;stroke-miterlimit:4;stroke-opacity:1;stroke-dasharray:2.69589905, 2.69589905;stroke-dashoffset:0"
   id="path8903-7"
   sodipodi:cx="221.44971"
   sodipodi:cy="70.74704"
   sodipodi:rx="21.153847"
   sodipodi:ry="40.97633"
   d="m 242.60355,70.74704 c 0,22.630602 -9.4709,40.97633 -21.15384,40.97633 -11.68295,0 -21.15385,-18.345728 -21.15385,-40.97633 0,-22.630602 9.4709,-40.97633 21.15385,-40.97633 11.68294,0 21.15384,18.345728 21.15384,40.97633 z"
   transform="matrix(0.67287925,0,0,-0.76325535,-12.204182,104.41226)" /><path
   sodipodi:type="arc"
   style="fill:#ffffff;fill-opacity:0;stroke:#000000;stroke-width:0.898633;stroke-miterlimit:4;stroke-opacity:1;stroke-dasharray:2.69589905, 2.69589905;stroke-dashoffset:0"
   id="path8903-1"
   sodipodi:cx="221.44971"
   sodipodi:cy="70.74704"
   sodipodi:rx="21.153847"
   sodipodi:ry="40.97633"
   d="m 242.60355,70.74704 c 0,22.630602 -9.4709,40.97633 -21.15384,40.97633 -11.68295,0 -21.15385,-18.345728 -21.15385,-40.97633 0,-22.630602 9.4709,-40.97633 21.15385,-40.97633 11.68294,0 21.15384,18.345728 21.15384,40.97633 z"
   transform="matrix(0.67287925,0,0,-0.76325535,-51.730806,104.41226)" /><path
   sodipodi:type="arc"
   style="fill:#ffffff;fill-opacity:0;stroke:#000000;stroke-width:0.898633;stroke-miterlimit:4;stroke-opacity:1;stroke-dasharray:2.69589905, 2.69589905;stroke-dashoffset:0"
   id="path8903-77"
   sodipodi:cx="221.44971"
   sodipodi:cy="70.74704"
   sodipodi:rx="21.153847"
   sodipodi:ry="40.97633"
   d="m 242.60355,70.74704 c 0,22.630602 -9.4709,40.97633 -21.15384,40.97633 -11.68295,0 -21.15385,-18.345728 -21.15385,-40.97633 0,-22.630602 9.4709,-40.97633 21.15385,-40.97633 11.68294,0 21.15384,18.345728 21.15384,40.97633 z"
   transform="matrix(0.67287925,0,0,-0.76325535,-91.257433,104.41226)" /></g></svg>