<?xml version="1.0" encoding="UTF-8" standalone="no"?>
<!-- Created with Inkscape (http://www.inkscape.org/) -->

<svg
   xmlns:dc="http://purl.org/dc/elements/1.1/"
   xmlns:cc="http://creativecommons.org/ns#"
   xmlns:rdf="http://www.w3.org/1999/02/22-rdf-syntax-ns#"
   xmlns:svg="http://www.w3.org/2000/svg"
   xmlns="http://www.w3.org/2000/svg"
   xmlns:sodipodi="http://sodipodi.sourceforge.net/DTD/sodipodi-0.dtd"
   xmlns:inkscape="http://www.inkscape.org/namespaces/inkscape"
   id="svg2985"
   version="1.1"
   inkscape:version="0.48.4 r9939"
   width="277.5"
   height="131.25"
   xml:space="preserve"
   sodipodi:docname="General_framework.eps"><metadata
     id="metadata2991"><rdf:RDF><cc:Work
         rdf:about=""><dc:format>image/svg+xml</dc:format><dc:type
           rdf:resource="http://purl.org/dc/dcmitype/StillImage" /><dc:title></dc:title></cc:Work></rdf:RDF></metadata><defs
     id="defs2989"><clipPath
       clipPathUnits="userSpaceOnUse"
       id="clipPath3001"><path
         d="m 0,1046.28 2220,0 0,-1039.99875 -2220,0 L 0,1046.28 z"
         id="path3003" /></clipPath><pattern
       patternTransform="matrix(0.008,0,0,0.008,49.6,-46.1)"
       patternUnits="userSpaceOnUse"
       x="0"
       y="0"
       width="6494"
       height="994"
       id="pattern3201"><g
         transform="scale(0.1,0.1)"
         id="g3203" /></pattern><pattern
       patternTransform="matrix(0.008,0,0,0.008,59.6,-81.2)"
       patternUnits="userSpaceOnUse"
       x="0"
       y="0"
       width="6494"
       height="994"
       id="pattern3225"><g
         transform="scale(0.1,0.1)"
         id="g3227" /></pattern><pattern
       patternTransform="matrix(0.008,0,0,0.008,57.4,-80.5)"
       patternUnits="userSpaceOnUse"
       x="0"
       y="0"
       width="6494"
       height="994"
       id="pattern3237"><g
         transform="scale(0.1,0.1)"
         id="g3239" /></pattern><pattern
       patternTransform="matrix(0.008,0,0,0.008,59,-80.2)"
       patternUnits="userSpaceOnUse"
       x="0"
       y="0"
       width="6494"
       height="994"
       id="pattern3249"><g
         transform="scale(0.1,0.1)"
         id="g3251" /></pattern><pattern
       patternTransform="matrix(0.008,0,0,0.008,65.5,-130.6)"
       patternUnits="userSpaceOnUse"
       x="0"
       y="0"
       width="6494"
       height="994"
       id="pattern3261"><g
         transform="scale(0.1,0.1)"
         id="g3263" /></pattern><pattern
       patternTransform="matrix(0.008,0,0,0.008,63.7,-113.3)"
       patternUnits="userSpaceOnUse"
       x="0"
       y="0"
       width="6494"
       height="994"
       id="pattern3273"><g
         transform="scale(0.1,0.1)"
         id="g3275" /></pattern><pattern
       patternTransform="matrix(0.008,0,0,0.008,57.6,-87)"
       patternUnits="userSpaceOnUse"
       x="0"
       y="0"
       width="6494"
       height="994"
       id="pattern3285"><g
         transform="scale(0.1,0.1)"
         id="g3287" /></pattern><pattern
       patternTransform="matrix(0.008,0,0,0.008,61.7,-140.9)"
       patternUnits="userSpaceOnUse"
       x="0"
       y="0"
       width="6494"
       height="994"
       id="pattern3297"><g
         transform="scale(0.1,0.1)"
         id="g3299" /></pattern></defs><sodipodi:namedview
     pagecolor="#ffffff"
     bordercolor="#666666"
     borderopacity="1"
     objecttolerance="10"
     gridtolerance="10"
     guidetolerance="10"
     inkscape:pageopacity="0"
     inkscape:pageshadow="2"
     inkscape:window-width="1366"
     inkscape:window-height="705"
     id="namedview2987"
     showgrid="false"
     inkscape:zoom="3.8780952"
     inkscape:cx="138.75"
     inkscape:cy="65.625"
     inkscape:window-x="-8"
     inkscape:window-y="-8"
     inkscape:window-maximized="1"
     inkscape:current-layer="g2993" /><g
     id="g2993"
     inkscape:groupmode="layer"
     inkscape:label="ink_ext_XXXXXX"
     transform="matrix(1.25,0,0,-1.25,0,131.25)"><g
       id="g2995"
       transform="scale(0.1,0.1)"><g
         id="g2997"><g
           id="g2999"
           clip-path="url(#clipPath3001)"><g
             id="g3005"
             transform="scale(10,10)"><text
               transform="matrix(1,0,0,-1,4.52383,3.22383)"
               id="text3007"><tspan
                 style="fill:#000000;fill-opacity:1;fill-rule:nonzero;stroke:none;font-family:Arial;font-variant:normal;font-weight:normal;font-size:8;writing-mode:lr;-inkscape-font-specification:ArialMT"
                 x="0 2.664 7.112 9.776 12 17.35982816 21.80782816 26.25582816 30.70382816 33.36782816 37.83965632 42.28765632 46.73565632 48.95965632"
                 y="0"
                 sodipodi:role="line"
                 id="tspan3009">(1) Subgraph A</tspan></text>
</g><path
             d="m 1807.58,645.922 c 0,-16.641 13.98,-33.32 31.21,-33.32 17.23,0 31.21,16.679 31.21,33.32 0,16.68 -13.98,29.18 -31.21,29.18 l -12.58,0 c -10.98,-4.18 -18.63,-16.68 -18.63,-29.18"
             style="fill:#ffff00;fill-opacity:1;fill-rule:evenodd;stroke:none"
             id="path3011" /><path
             d="m 1807.58,645.926 c 0,-16.641 13.98,-33.321 31.21,-33.321 17.23,0 31.21,16.68 31.21,33.321 0,16.679 -13.98,29.179 -31.21,29.179 l -12.58,0 c -10.98,-4.179 -18.63,-16.679 -18.63,-29.179 z"
             style="fill:none;stroke:#000000;stroke-opacity:1;stroke-width:8;stroke-linecap:butt;stroke-linejoin:miter;stroke-miterlimit:4;stroke-dasharray:none"
             id="path3013" /><path
             d="M 506.25,571.746 373.441,715.375"
             style="fill:none;stroke:#000000;stroke-opacity:1;stroke-width:8;stroke-linecap:butt;stroke-linejoin:miter;stroke-miterlimit:4;stroke-dasharray:none"
             id="path3015" /><path
             d="M 395.199,691.859 417.77,691 l -49.758,30.238 26.289,-51.957"
             style="fill:#000000;fill-opacity:1;fill-rule:evenodd;stroke:none"
             id="path3017" /><path
             d="m 395.199,691.867 22.574,-0.867 -49.765,30.238 26.297,-51.957 0.894,22.586 z"
             style="fill:none;stroke:#000000;stroke-opacity:1;stroke-width:4.00001;stroke-linecap:butt;stroke-linejoin:miter;stroke-miterlimit:4;stroke-dasharray:none"
             id="path3019" /><path
             d="m 371.801,729.949 c 0.738,-16.64 -12.5,-33.277 -29.731,-33.277 -17.269,0 -31.949,16.637 -32.691,33.277 -0.75,16.68 12.652,29.18 29.883,29.18 l 12.578,0 c 11.172,-4.18 19.371,-16.68 19.961,-29.18"
             style="fill:#0000ff;fill-opacity:1;fill-rule:evenodd;stroke:none"
             id="path3021" /><path
             d="m 371.801,729.945 c 0.738,-16.64 -12.5,-33.281 -29.731,-33.281 -17.269,0 -31.949,16.641 -32.691,33.281 -0.75,16.68 12.652,29.18 29.883,29.18 l 12.578,0 c 11.172,-4.18 19.371,-16.68 19.961,-29.18 z"
             style="fill:none;stroke:#000000;stroke-opacity:1;stroke-width:8;stroke-linecap:butt;stroke-linejoin:miter;stroke-miterlimit:4;stroke-dasharray:none"
             id="path3023" /><path
             d="M 307.07,754.906 177.34,789.285"
             style="fill:none;stroke:#000000;stroke-opacity:1;stroke-width:8;stroke-linecap:butt;stroke-linejoin:miter;stroke-miterlimit:4;stroke-dasharray:none"
             id="path3025" /><path
             d="m 208.281,781.078 19.528,11.371 -58.2,-1.097 50.039,-29.801"
             style="fill:#000000;fill-opacity:1;fill-rule:evenodd;stroke:none"
             id="path3027" /><path
             d="m 208.285,781.082 19.524,11.363 -58.2,-1.097 50.036,-29.797 -11.36,19.531 z"
             style="fill:none;stroke:#000000;stroke-opacity:1;stroke-width:4;stroke-linecap:butt;stroke-linejoin:miter;stroke-miterlimit:4;stroke-dasharray:none"
             id="path3029" /><path
             d="m 173.398,795.852 c 0.704,-16.641 -12.539,-33.321 -29.769,-33.321 -17.219,0 -31.949,16.68 -32.688,33.321 -0.742,16.636 12.688,29.136 29.918,29.136 l 12.582,0 c 11.168,-4.136 19.368,-16.636 19.957,-29.136"
             style="fill:#0000ff;fill-opacity:1;fill-rule:evenodd;stroke:none"
             id="path3031" /><path
             d="m 173.398,795.844 c 0.704,-16.637 -12.539,-33.317 -29.769,-33.317 -17.219,0 -31.949,16.68 -32.688,33.317 -0.742,16.64 12.688,29.14 29.918,29.14 l 12.582,0 c 11.168,-4.14 19.368,-16.64 19.957,-29.14 z"
             style="fill:none;stroke:#000000;stroke-opacity:1;stroke-width:8;stroke-linecap:butt;stroke-linejoin:miter;stroke-miterlimit:4;stroke-dasharray:none"
             id="path3033" /><path
             d="m 280.898,543.578 c 0.743,-16.68 -12.5,-33.316 -29.726,-33.316 -17.223,0 -31.953,16.636 -32.692,33.316 -0.75,16.641 12.692,29.141 29.918,29.141 l 12.543,0 c 11.168,-4.18 19.411,-16.641 19.957,-29.141"
             style="fill:#0000ff;fill-opacity:1;fill-rule:evenodd;stroke:none"
             id="path3035" /><path
             d="m 280.898,543.574 c 0.743,-16.679 -12.5,-33.32 -29.726,-33.32 -17.223,0 -31.953,16.641 -32.692,33.32 -0.75,16.653 12.692,29.153 29.918,29.153 l 12.543,0 c 11.168,-4.18 19.411,-16.653 19.957,-29.153 z"
             style="fill:none;stroke:#000000;stroke-opacity:1;stroke-width:8;stroke-linecap:butt;stroke-linejoin:miter;stroke-miterlimit:4;stroke-dasharray:none"
             id="path3037" /><path
             d="m 937.34,597.762 c 0,-16.641 13.988,-33.321 31.211,-33.321 17.23,0 31.219,16.68 31.219,33.321 0,16.636 -13.989,29.136 -31.219,29.136 l -12.531,0 c -10.981,-4.136 -18.68,-16.636 -18.68,-29.136"
             style="fill:#00ff00;fill-opacity:1;fill-rule:evenodd;stroke:none"
             id="path3039" /><path
             d="m 937.34,597.754 c 0,-16.637 13.988,-33.316 31.211,-33.316 17.23,0 31.219,16.679 31.219,33.316 0,16.641 -13.989,29.141 -31.219,29.141 l -12.531,0 c -10.981,-4.141 -18.68,-16.641 -18.68,-29.141 z"
             style="fill:none;stroke:#000000;stroke-opacity:1;stroke-width:8;stroke-linecap:butt;stroke-linejoin:miter;stroke-miterlimit:4;stroke-dasharray:none"
             id="path3041" /><path
             d="m 979.77,338.574 118.04,150.981"
             style="fill:none;stroke:#000000;stroke-opacity:1;stroke-width:8.08417;stroke-linecap:butt;stroke-linejoin:miter;stroke-miterlimit:4;stroke-dasharray:none"
             id="path3043" /><path
             d="m 1077.89,464.051 2.77,-22.699 22.11,54.57 -47.57,-34.641"
             style="fill:#000000;fill-opacity:1;fill-rule:evenodd;stroke:none"
             id="path3045" /><path
             d="m 1077.89,464.043 2.77,-22.691 22.11,54.574 -47.58,-34.645 22.7,2.762 z"
             style="fill:none;stroke:#000000;stroke-opacity:1;stroke-width:4.04209;stroke-linecap:butt;stroke-linejoin:miter;stroke-miterlimit:4;stroke-dasharray:none"
             id="path3047" /><path
             d="M 1087.97,751.434 995.16,621.504"
             style="fill:none;stroke:#000000;stroke-opacity:1;stroke-width:8;stroke-linecap:butt;stroke-linejoin:miter;stroke-miterlimit:4;stroke-dasharray:none"
             id="path3049" /><path
             d="m 1013.75,647.531 -3.75,22.34 -19.488,-54.883 45.538,36.25"
             style="fill:#000000;fill-opacity:1;fill-rule:evenodd;stroke:none"
             id="path3051" /><path
             d="m 1013.75,647.523 -3.75,22.352 -19.496,-54.891 45.556,36.25 -22.31,-3.711 z"
             style="fill:none;stroke:#000000;stroke-opacity:1;stroke-width:4;stroke-linecap:butt;stroke-linejoin:miter;stroke-miterlimit:4;stroke-dasharray:none"
             id="path3053" /><path
             d="m 1061.64,785.691 c 0,-16.64 13.95,-33.32 31.21,-33.32 17.23,0 31.21,16.68 31.21,33.32 0,16.68 -13.98,29.137 -31.21,29.137 l -12.58,0 c -10.97,-4.137 -18.63,-16.637 -18.63,-29.137"
             style="fill:#00ff00;fill-opacity:1;fill-rule:evenodd;stroke:none"
             id="path3055" /><path
             d="m 1061.64,785.684 c 0,-16.637 13.95,-33.317 31.21,-33.317 17.23,0 31.21,16.68 31.21,33.317 0,16.683 -13.98,29.14 -31.21,29.14 l -12.58,0 c -10.97,-4.14 -18.63,-16.64 -18.63,-29.14 z"
             style="fill:none;stroke:#000000;stroke-opacity:1;stroke-width:8;stroke-linecap:butt;stroke-linejoin:miter;stroke-miterlimit:4;stroke-dasharray:none"
             id="path3057" /><path
             d="m 1087.34,509.441 c 0,-16.64 13.99,-33.32 31.21,-33.32 17.23,0 31.22,16.68 31.22,33.32 0,16.68 -13.99,29.18 -31.22,29.18 l -12.57,0 c -10.98,-4.18 -18.64,-16.68 -18.64,-29.18"
             style="fill:#00ff00;fill-opacity:1;fill-rule:evenodd;stroke:none"
             id="path3059" /><path
             d="m 1087.34,509.438 c 0,-16.641 13.99,-33.321 31.21,-33.321 17.23,0 31.22,16.68 31.22,33.321 0,16.679 -13.99,29.179 -31.22,29.179 l -12.57,0 c -10.98,-4.179 -18.64,-16.679 -18.64,-29.179 z"
             style="fill:none;stroke:#000000;stroke-opacity:1;stroke-width:8;stroke-linecap:butt;stroke-linejoin:miter;stroke-miterlimit:4;stroke-dasharray:none"
             id="path3061" /><path
             d="m 1106.84,805.965 113.47,74.531"
             style="fill:none;stroke:#000000;stroke-opacity:1;stroke-width:8;stroke-linecap:butt;stroke-linejoin:miter;stroke-miterlimit:4;stroke-dasharray:none"
             id="path3063" /><path
             d="m 1133.59,823.539 4.57,22.152 -38,-44.101 55.58,17.34"
             style="fill:#000000;fill-opacity:1;fill-rule:evenodd;stroke:none"
             id="path3065" /><path
             d="m 1133.59,823.539 4.58,22.149 -38.02,-44.098 55.59,17.348 -22.15,4.601 z"
             style="fill:none;stroke:#000000;stroke-opacity:1;stroke-width:4;stroke-linecap:butt;stroke-linejoin:miter;stroke-miterlimit:4;stroke-dasharray:none"
             id="path3067" /><path
             d="m 1226.91,657.289 c 0,-16.68 13.99,-33.32 31.22,-33.32 17.22,0 31.21,16.64 31.21,33.32 0,16.641 -13.99,29.141 -31.21,29.141 l -12.58,0 c -10.98,-4.18 -18.64,-16.641 -18.64,-29.141"
             style="fill:#00ff00;fill-opacity:1;fill-rule:evenodd;stroke:none"
             id="path3069" /><path
             d="m 1226.91,657.297 c 0,-16.68 13.99,-33.32 31.22,-33.32 17.22,0 31.21,16.64 31.21,33.32 0,16.637 -13.99,29.137 -31.21,29.137 l -12.58,0 c -10.98,-4.18 -18.64,-16.637 -18.64,-29.137 z"
             style="fill:none;stroke:#000000;stroke-opacity:1;stroke-width:8;stroke-linecap:butt;stroke-linejoin:miter;stroke-miterlimit:4;stroke-dasharray:none"
             id="path3071" /><path
             d="m 1003.44,856.281 c 0,-16.652 -13.991,-33.32 -31.21,-33.32 -17.23,0 -31.21,16.668 -31.21,33.32 0,16.68 13.98,29.141 31.21,29.141 l 12.54,0 c 10.968,-4.141 18.67,-16.641 18.67,-29.141"
             style="fill:#00ff00;fill-opacity:1;fill-rule:evenodd;stroke:none"
             id="path3073" /><path
             d="m 1003.44,856.277 c 0,-16.64 -13.991,-33.32 -31.21,-33.32 -17.23,0 -31.21,16.68 -31.21,33.32 0,16.68 13.98,29.137 31.21,29.137 l 12.54,0 c 10.968,-4.137 18.67,-16.637 18.67,-29.137 z"
             style="fill:none;stroke:#000000;stroke-opacity:1;stroke-width:8;stroke-linecap:butt;stroke-linejoin:miter;stroke-miterlimit:4;stroke-dasharray:none"
             id="path3075" /><path
             d="m 969.301,624.906 -7.031,191.84"
             style="fill:none;stroke:#000000;stroke-opacity:1;stroke-width:8;stroke-linecap:butt;stroke-linejoin:miter;stroke-miterlimit:4;stroke-dasharray:none"
             id="path3077" /><path
             d="M 963.441,784.75 980,769.359 961.988,824.75 948.051,768.191"
             style="fill:#000000;fill-opacity:1;fill-rule:evenodd;stroke:none"
             id="path3079" /><path
             d="m 963.441,784.754 16.555,-15.395 -18.004,55.395 -13.945,-56.566 15.394,16.566 z"
             style="fill:none;stroke:#000000;stroke-opacity:1;stroke-width:4;stroke-linecap:butt;stroke-linejoin:miter;stroke-miterlimit:4;stroke-dasharray:none"
             id="path3081" /><path
             d="m 1236.05,669.906 -122.73,98.641"
             style="fill:none;stroke:#000000;stroke-opacity:1;stroke-width:8;stroke-linecap:butt;stroke-linejoin:miter;stroke-miterlimit:4;stroke-dasharray:none"
             id="path3083" /><path
             d="m 1211.09,689.949 -22.5,-2.461 53.68,-22.617 -33.6,47.578"
             style="fill:#000000;fill-opacity:1;fill-rule:evenodd;stroke:none"
             id="path3085" /><path
             d="m 1211.1,689.949 -22.5,-2.461 53.66,-22.621 -33.58,47.586 2.42,-22.504 z"
             style="fill:none;stroke:#000000;stroke-opacity:1;stroke-width:4;stroke-linecap:butt;stroke-linejoin:miter;stroke-miterlimit:4;stroke-dasharray:none"
             id="path3087" /><path
             d="M 1210.35,322.797 986.371,321.824"
             style="fill:none;stroke:#000000;stroke-opacity:1;stroke-width:8;stroke-linecap:butt;stroke-linejoin:miter;stroke-miterlimit:4;stroke-dasharray:none"
             id="path3089" /><path
             d="m 1018.36,321.98 15.94,16.051 -55.941,-16.25 56.091,-15.742"
             style="fill:#000000;fill-opacity:1;fill-rule:evenodd;stroke:none"
             id="path3091" /><path
             d="m 1018.36,321.984 15.93,16.047 -55.927,-16.242 56.087,-15.746 -16.09,15.941 z"
             style="fill:none;stroke:#000000;stroke-opacity:1;stroke-width:4;stroke-linecap:butt;stroke-linejoin:miter;stroke-miterlimit:4;stroke-dasharray:none"
             id="path3093" /><path
             d="m 229.57,569.637 -82.3,195.039"
             style="fill:none;stroke:#000000;stroke-opacity:1;stroke-width:8;stroke-linecap:butt;stroke-linejoin:miter;stroke-miterlimit:4;stroke-dasharray:none"
             id="path3095" /><path
             d="m 159.691,735.219 20.969,-8.547 -36.519,45.387 7.031,-57.821"
             style="fill:#000000;fill-opacity:1;fill-rule:evenodd;stroke:none"
             id="path3097" /><path
             d="m 159.691,735.219 20.973,-8.551 -36.519,45.391 7.031,-57.813 8.515,20.973 z"
             style="fill:none;stroke:#000000;stroke-opacity:1;stroke-width:4;stroke-linecap:butt;stroke-linejoin:miter;stroke-miterlimit:4;stroke-dasharray:none"
             id="path3099" /><path
             d="m 552.699,547.762 c 0.742,-16.684 -12.5,-33.321 -29.73,-33.321 -17.231,0 -31.949,16.637 -32.699,33.321 -0.739,16.636 12.699,29.136 29.929,29.136 l 12.571,0 c 11.14,-4.179 19.378,-16.636 19.929,-29.136"
             style="fill:#0000ff;fill-opacity:1;fill-rule:evenodd;stroke:none"
             id="path3101" /><path
             d="m 552.699,547.754 c 0.742,-16.68 -12.5,-33.316 -29.73,-33.316 -17.231,0 -31.949,16.636 -32.699,33.316 -0.739,16.641 12.699,29.141 29.929,29.141 l 12.571,0 c 11.14,-4.168 19.378,-16.641 19.929,-29.141 z"
             style="fill:none;stroke:#000000;stroke-opacity:1;stroke-width:8;stroke-linecap:butt;stroke-linejoin:miter;stroke-miterlimit:4;stroke-dasharray:none"
             id="path3103" /><path
             d="m 539.84,820.922 c 0.75,-16.684 -12.5,-33.32 -29.719,-33.32 -17.23,0 -31.961,16.636 -32.699,33.32 -0.742,16.637 12.699,29.137 29.918,29.137 l 12.582,0 c 11.129,-4.18 19.379,-16.637 19.918,-29.137"
             style="fill:#0000ff;fill-opacity:1;fill-rule:evenodd;stroke:none"
             id="path3105" /><path
             d="m 539.84,820.926 c 0.75,-16.68 -12.5,-33.321 -29.719,-33.321 -17.23,0 -31.961,16.641 -32.699,33.321 -0.742,16.64 12.699,29.14 29.918,29.14 l 12.582,0 c 11.129,-4.179 19.379,-16.64 19.918,-29.14 z"
             style="fill:none;stroke:#000000;stroke-opacity:1;stroke-width:8;stroke-linecap:butt;stroke-linejoin:miter;stroke-miterlimit:4;stroke-dasharray:none"
             id="path3107" /><path
             d="m 112.422,425.609 c 0.738,-16.64 -12.5001,-33.281 -29.7228,-33.281 -17.2304,0 -31.9609,16.641 -32.6992,33.281 -0.7383,16.68 12.6992,29.18 29.9219,29.18 l 12.539,0 c 11.1681,-4.18 19.4181,-16.68 19.9611,-29.18"
             style="fill:#0000ff;fill-opacity:1;fill-rule:evenodd;stroke:none"
             id="path3109" /><path
             d="m 112.422,425.617 c 0.738,-16.64 -12.5001,-33.293 -29.7228,-33.293 -17.2304,0 -31.9609,16.653 -32.6992,33.293 -0.7383,16.68 12.6992,29.18 29.9219,29.18 l 12.539,0 c 11.1681,-4.18 19.4181,-16.68 19.9611,-29.18 z"
             style="fill:none;stroke:#000000;stroke-opacity:1;stroke-width:8;stroke-linecap:butt;stroke-linejoin:miter;stroke-miterlimit:4;stroke-dasharray:none"
             id="path3111" /><path
             d="m 350.23,377.41 c 0.75,-16.64 -12.5,-33.32 -29.718,-33.32 -17.231,0 -31.961,16.68 -32.703,33.32 -0.739,16.68 12.703,29.18 29.921,29.18 l 12.579,0 c 11.14,-4.18 19.382,-16.68 19.921,-29.18"
             style="fill:#0000ff;fill-opacity:1;fill-rule:evenodd;stroke:none"
             id="path3113" /><path
             d="m 350.23,377.406 c 0.75,-16.64 -12.5,-33.32 -29.718,-33.32 -17.231,0 -31.961,16.68 -32.703,33.32 -0.739,16.68 12.703,29.18 29.921,29.18 l 12.579,0 c 11.14,-4.18 19.382,-16.68 19.921,-29.18 z"
             style="fill:none;stroke:#000000;stroke-opacity:1;stroke-width:8;stroke-linecap:butt;stroke-linejoin:miter;stroke-miterlimit:4;stroke-dasharray:none"
             id="path3115" /><path
             d="m 526.988,293.852 c 0.742,-16.641 -12.5,-33.321 -29.718,-33.321 -17.231,0 -31.961,16.68 -32.7,33.321 -0.742,16.679 12.7,29.179 29.918,29.179 l 12.543,0 c 11.168,-4.179 19.418,-16.679 19.957,-29.179"
             style="fill:#0000ff;fill-opacity:1;fill-rule:evenodd;stroke:none"
             id="path3117" /><path
             d="m 526.988,293.855 c 0.742,-16.64 -12.5,-33.32 -29.718,-33.32 -17.231,0 -31.961,16.68 -32.7,33.32 -0.742,16.68 12.7,29.18 29.918,29.18 l 12.543,0 c 11.168,-4.18 19.418,-16.68 19.957,-29.18 z"
             style="fill:none;stroke:#000000;stroke-opacity:1;stroke-width:8;stroke-linecap:butt;stroke-linejoin:miter;stroke-miterlimit:4;stroke-dasharray:none"
             id="path3119" /><path
             d="m 100.43,432.605 126.558,88.981"
             style="fill:none;stroke:#000000;stroke-opacity:1;stroke-width:8;stroke-linecap:butt;stroke-linejoin:miter;stroke-miterlimit:4;stroke-dasharray:none"
             id="path3121" /><path
             d="m 200.82,503.191 -3.871,-22.312 36.602,45.32 -55,-19.097"
             style="fill:#000000;fill-opacity:1;fill-rule:evenodd;stroke:none"
             id="path3123" /><path
             d="m 200.816,503.191 -3.863,-22.308 36.602,45.312 -55.004,-19.097 22.265,-3.907 z"
             style="fill:none;stroke:#000000;stroke-opacity:1;stroke-width:4;stroke-linecap:butt;stroke-linejoin:miter;stroke-miterlimit:4;stroke-dasharray:none"
             id="path3125" /><path
             d="M 511.801,779.676 522.66,585.887"
             style="fill:none;stroke:#000000;stroke-opacity:1;stroke-width:8;stroke-linecap:butt;stroke-linejoin:miter;stroke-miterlimit:4;stroke-dasharray:none"
             id="path3127" /><path
             d="m 520.898,617.84 -16.878,15.082 19.109,-55.043 12.812,56.832"
             style="fill:#000000;fill-opacity:1;fill-rule:evenodd;stroke:none"
             id="path3129" /><path
             d="m 520.898,617.836 -16.878,15.082 19.101,-55.043 12.82,56.836 -15.043,-16.875 z"
             style="fill:none;stroke:#000000;stroke-opacity:1;stroke-width:4;stroke-linecap:butt;stroke-linejoin:miter;stroke-miterlimit:4;stroke-dasharray:none"
             id="path3131" /><path
             d="M 347.891,403.656 516.25,508.734"
             style="fill:none;stroke:#000000;stroke-opacity:1;stroke-width:8;stroke-linecap:butt;stroke-linejoin:miter;stroke-miterlimit:4;stroke-dasharray:none"
             id="path3133" /><path
             d="m 489.102,491.82 -5.122,-22.07 39.071,43.238 -55.981,-16.09"
             style="fill:#000000;fill-opacity:1;fill-rule:evenodd;stroke:none"
             id="path3135" /><path
             d="m 489.105,491.828 -5.121,-22.078 39.055,43.242 -55.973,-16.09 22.039,-5.074 z"
             style="fill:none;stroke:#000000;stroke-opacity:1;stroke-width:4;stroke-linecap:butt;stroke-linejoin:miter;stroke-miterlimit:4;stroke-dasharray:none"
             id="path3137" /><path
             d="M 77.9297,455.105 120.98,765.844"
             style="fill:none;stroke:#000000;stroke-opacity:1;stroke-width:8;stroke-linecap:butt;stroke-linejoin:miter;stroke-miterlimit:4;stroke-dasharray:none"
             id="path3139" /><path
             d="m 116.559,734.172 13.671,-18.051 -8.16,57.66 -23.5505,-53.293"
             style="fill:#000000;fill-opacity:1;fill-rule:evenodd;stroke:none"
             id="path3141" /><path
             d="m 116.563,734.172 13.675,-18.047 -8.172,57.652 -23.5504,-53.281 18.0474,13.676 z"
             style="fill:none;stroke:#000000;stroke-opacity:1;stroke-width:4;stroke-linecap:butt;stroke-linejoin:miter;stroke-miterlimit:4;stroke-dasharray:none"
             id="path3143" /><g
             id="g3145"
             transform="scale(10,10)"><text
               transform="matrix(1,0,0,-1,84.982,2.68359)"
               id="text3147"><tspan
                 style="fill:#000000;fill-opacity:1;fill-rule:nonzero;stroke:none;font-family:Arial;font-variant:normal;font-weight:normal;font-size:8;writing-mode:lr;-inkscape-font-specification:ArialMT"
                 x="0 2.664 7.112 9.776 12 17.35982816 21.80782816 26.25582816 30.70382816 33.36782816 37.83965632 42.28765632 46.73565632 48.95965632"
                 y="0"
                 sodipodi:role="line"
                 id="tspan3149">(2) Subgraph B</tspan><tspan
                 style="fill:#000000;fill-opacity:1;fill-rule:nonzero;stroke:none;font-family:Arial;font-variant:normal;font-weight:normal;font-size:8;writing-mode:lr;-inkscape-font-specification:ArialMT"
                 x="78.4148 81.0788 85.5268 88.1908 90.4148 95.77462816 100.22262816 104.67062816 109.11862816 111.78262816 116.25445632 120.70245632 125.15045632 127.37445632"
                 y="-0.321484"
                 sodipodi:role="line"
                 id="tspan3151">(3) Subgraph C</tspan></text>
</g><path
             d="m 1287.3,531.672 c 0,-16.641 13.99,-33.32 31.22,-33.32 17.22,0 31.21,16.679 31.21,33.32 0,16.68 -13.99,29.18 -31.21,29.18 l -12.58,0 c -10.98,-4.18 -18.64,-16.68 -18.64,-29.18"
             style="fill:#00ff00;fill-opacity:1;fill-rule:evenodd;stroke:none"
             id="path3153" /><path
             d="m 1287.3,531.664 c 0,-16.637 13.99,-33.32 31.22,-33.32 17.22,0 31.21,16.683 31.21,33.32 0,16.68 -13.99,29.18 -31.21,29.18 l -12.58,0 c -10.98,-4.18 -18.64,-16.68 -18.64,-29.18 z"
             style="fill:none;stroke:#000000;stroke-opacity:1;stroke-width:8;stroke-linecap:butt;stroke-linejoin:miter;stroke-miterlimit:4;stroke-dasharray:none"
             id="path3155" /><path
             d="m 1216.6,901.281 c 0,-16.679 13.99,-33.32 31.21,-33.32 17.23,0 31.21,16.641 31.21,33.32 0,16.641 -13.98,29.141 -31.21,29.141 l -12.58,0 c -10.97,-4.184 -18.63,-16.684 -18.63,-29.141"
             style="fill:#00ff00;fill-opacity:1;fill-rule:evenodd;stroke:none"
             id="path3157" /><path
             d="m 1216.6,901.277 c 0,-16.683 13.99,-33.32 31.21,-33.32 17.23,0 31.21,16.637 31.21,33.32 0,16.637 -13.98,29.137 -31.21,29.137 l -12.58,0 c -10.97,-4.18 -18.63,-16.68 -18.63,-29.137 z"
             style="fill:none;stroke:#000000;stroke-opacity:1;stroke-width:8;stroke-linecap:butt;stroke-linejoin:miter;stroke-miterlimit:4;stroke-dasharray:none"
             id="path3159" /><path
             d="m 1213.36,338.852 c 0,-16.641 13.98,-33.321 31.21,-33.321 17.23,0 31.21,16.68 31.21,33.321 0,16.679 -13.98,29.136 -31.21,29.136 l -12.54,0 c -10.98,-4.136 -18.67,-16.636 -18.67,-29.136"
             style="fill:#00ff00;fill-opacity:1;fill-rule:evenodd;stroke:none"
             id="path3161" /><path
             d="m 1213.36,338.855 c 0,-16.64 13.98,-33.32 31.21,-33.32 17.23,0 31.21,16.68 31.21,33.32 0,16.68 -13.98,29.141 -31.21,29.141 l -12.54,0 c -10.98,-4.141 -18.67,-16.641 -18.67,-29.141 z"
             style="fill:none;stroke:#000000;stroke-opacity:1;stroke-width:8;stroke-linecap:butt;stroke-linejoin:miter;stroke-miterlimit:4;stroke-dasharray:none"
             id="path3163" /><path
             d="m 920.941,322.801 c 0,-16.68 13.981,-33.321 31.207,-33.321 17.231,0 31.211,16.641 31.211,33.321 0,16.64 -13.98,29.14 -31.211,29.14 l -12.578,0 c -10.98,-4.179 -18.629,-16.64 -18.629,-29.14"
             style="fill:#00ff00;fill-opacity:1;fill-rule:evenodd;stroke:none"
             id="path3165" /><path
             d="m 920.941,322.797 c 0,-16.68 13.981,-33.32 31.207,-33.32 17.231,0 31.211,16.64 31.211,33.32 0,16.641 -13.98,29.141 -31.211,29.141 l -12.578,0 c -10.98,-4.184 -18.629,-16.641 -18.629,-29.141 z"
             style="fill:none;stroke:#000000;stroke-opacity:1;stroke-width:8;stroke-linecap:butt;stroke-linejoin:miter;stroke-miterlimit:4;stroke-dasharray:none"
             id="path3167" /><path
             d="M 1230.59,638.035 1001.8,585.645"
             style="fill:none;stroke:#000000;stroke-opacity:1;stroke-width:8;stroke-linecap:butt;stroke-linejoin:miter;stroke-miterlimit:4;stroke-dasharray:none"
             id="path3169" /><path
             d="m 1033.01,592.801 12.03,19.179 -51.02,-28.128 58.17,-3.082"
             style="fill:#000000;fill-opacity:1;fill-rule:evenodd;stroke:none"
             id="path3171" /><path
             d="m 1033,592.797 12.04,19.183 -51.013,-28.121 58.163,-3.086 -19.19,12.024 z"
             style="fill:none;stroke:#000000;stroke-opacity:1;stroke-width:4;stroke-linecap:butt;stroke-linejoin:miter;stroke-miterlimit:4;stroke-dasharray:none"
             id="path3173" /><path
             d="M 1259.53,618.777 1246.05,376.746"
             style="fill:none;stroke:#000000;stroke-opacity:1;stroke-width:8;stroke-linecap:butt;stroke-linejoin:miter;stroke-miterlimit:4;stroke-dasharray:none"
             id="path3175" /><path
             d="m 1247.85,408.699 -15.12,16.871 12.9,-56.789 19.06,55.028"
             style="fill:#000000;fill-opacity:1;fill-rule:evenodd;stroke:none"
             id="path3177" /><path
             d="m 1247.85,408.699 -15.12,16.871 12.9,-56.793 19.06,55.036 -16.84,-15.114 z"
             style="fill:none;stroke:#000000;stroke-opacity:1;stroke-width:4;stroke-linecap:butt;stroke-linejoin:miter;stroke-miterlimit:4;stroke-dasharray:none"
             id="path3179" /><path
             d="m 1762.93,326 c 0,-16.641 13.98,-33.32 31.21,-33.32 17.23,0 31.21,16.679 31.21,33.32 0,16.641 -13.98,29.141 -31.21,29.141 l -12.58,0 C 1770.59,351 1762.93,338.5 1762.93,326"
             style="fill:#ffff00;fill-opacity:1;fill-rule:evenodd;stroke:none"
             id="path3181" /><path
             d="m 1762.93,326.004 c 0,-16.637 13.98,-33.32 31.21,-33.32 17.23,0 31.21,16.683 31.21,33.32 0,16.641 -13.98,29.141 -31.21,29.141 l -12.58,0 c -10.97,-4.141 -18.63,-16.641 -18.63,-29.141 z"
             style="fill:none;stroke:#000000;stroke-opacity:1;stroke-width:8;stroke-linecap:butt;stroke-linejoin:miter;stroke-miterlimit:4;stroke-dasharray:none"
             id="path3183" /><path
             d="m 1881.84,881.98 c 0,-16.679 13.98,-33.32 31.21,-33.32 17.22,0 31.21,16.641 31.21,33.32 0,16.641 -13.99,29.141 -31.21,29.141 l -12.58,0 c -10.98,-4.141 -18.63,-16.641 -18.63,-29.141"
             style="fill:#ffff00;fill-opacity:1;fill-rule:evenodd;stroke:none"
             id="path3185" /><path
             d="m 1881.84,881.977 c 0,-16.68 13.98,-33.321 31.21,-33.321 17.22,0 31.21,16.641 31.21,33.321 0,16.64 -13.99,29.14 -31.21,29.14 l -12.58,0 c -10.98,-4.14 -18.63,-16.64 -18.63,-29.14 z"
             style="fill:none;stroke:#000000;stroke-opacity:1;stroke-width:8;stroke-linecap:butt;stroke-linejoin:miter;stroke-miterlimit:4;stroke-dasharray:none"
             id="path3187" /><path
             d="m 1978.24,467.41 c 0,-16.68 13.99,-33.32 31.21,-33.32 17.23,0 31.21,16.64 31.21,33.32 0,16.641 -13.98,29.141 -31.21,29.141 l -12.57,0 c -10.98,-4.141 -18.64,-16.641 -18.64,-29.141"
             style="fill:#ffff00;fill-opacity:1;fill-rule:evenodd;stroke:none"
             id="path3189" /><path
             d="m 1978.24,467.406 c 0,-16.679 13.99,-33.32 31.21,-33.32 17.23,0 31.21,16.641 31.21,33.32 0,16.641 -13.98,29.141 -31.21,29.141 l -12.57,0 c -10.98,-4.141 -18.64,-16.641 -18.64,-29.141 z"
             style="fill:none;stroke:#000000;stroke-opacity:1;stroke-width:8;stroke-linecap:butt;stroke-linejoin:miter;stroke-miterlimit:4;stroke-dasharray:none"
             id="path3191" /><path
             d="m 1669.73,824.129 c 0,-16.641 13.98,-33.32 31.21,-33.32 17.22,0 31.21,16.679 31.21,33.32 0,16.641 -13.99,29.141 -31.21,29.141 l -12.58,0 c -10.98,-4.141 -18.63,-16.641 -18.63,-29.141"
             style="fill:#ffff00;fill-opacity:1;fill-rule:evenodd;stroke:none"
             id="path3193" /><path
             d="m 1669.73,824.125 c 0,-16.641 13.98,-33.32 31.21,-33.32 17.22,0 31.21,16.679 31.21,33.32 0,16.641 -13.99,29.141 -31.21,29.141 l -12.58,0 c -10.98,-4.141 -18.63,-16.641 -18.63,-29.141 z"
             style="fill:none;stroke:#000000;stroke-opacity:1;stroke-width:8;stroke-linecap:butt;stroke-linejoin:miter;stroke-miterlimit:4;stroke-dasharray:none"
             id="path3195" /><path
             d="m 1679.38,502.762 c 0,-16.684 13.98,-33.321 31.21,-33.321 17.22,0 31.21,16.637 31.21,33.321 0,16.636 -13.99,29.136 -31.21,29.136 l -12.58,0 c -10.98,-4.136 -18.63,-16.636 -18.63,-29.136"
             style="fill:#ffff00;fill-opacity:1;fill-rule:evenodd;stroke:none"
             id="path3197" /><path
             d="m 1679.38,502.754 c 0,-16.68 13.98,-33.316 31.21,-33.316 17.22,0 31.21,16.636 31.21,33.316 0,16.641 -13.99,29.141 -31.21,29.141 l -12.58,0 c -10.98,-4.141 -18.63,-16.641 -18.63,-29.141 z"
             style="fill:none;stroke:#000000;stroke-opacity:1;stroke-width:8;stroke-linecap:butt;stroke-linejoin:miter;stroke-miterlimit:4;stroke-dasharray:none"
             id="path3199" /><path
             d="M 1286.6,901.672 1670.04,831.59"
             style="fill:url(#pattern3201);fill-opacity:1;fill-rule:nonzero;stroke:none"
             id="path3205" /><path
             d="m 1286.6,901.664 383.44,-70.078"
             style="fill:none;stroke:#ff0000;stroke-opacity:1;stroke-width:8;stroke-linecap:butt;stroke-linejoin:miter;stroke-miterlimit:4;stroke-dasharray:none"
             id="path3207" /><path
             d="m 1318.09,895.922 18.59,12.859 -57.93,-5.672 52.19,-25.82"
             style="fill:#ff0000;fill-opacity:1;fill-rule:evenodd;stroke:none"
             id="path3209" /><path
             d="m 1318.08,895.926 18.6,12.847 -57.93,-5.66 52.18,-25.824 -12.85,18.637 z"
             style="fill:none;stroke:#ff0000;stroke-opacity:1;stroke-width:4;stroke-linecap:butt;stroke-linejoin:miter;stroke-miterlimit:4;stroke-dasharray:none"
             id="path3211" /><path
             d="m 1995.47,503.074 -74.53,339.68"
             style="fill:none;stroke:#000000;stroke-opacity:1;stroke-width:8;stroke-linecap:butt;stroke-linejoin:miter;stroke-miterlimit:4;stroke-dasharray:none"
             id="path3213" /><path
             d="m 1927.81,811.512 19.03,-12.231 -27.62,51.289 -3.63,-58.121"
             style="fill:#000000;fill-opacity:1;fill-rule:evenodd;stroke:none"
             id="path3215" /><path
             d="m 1927.81,811.508 19.02,-12.227 -27.61,51.293 -3.63,-58.129 12.22,19.063 z"
             style="fill:none;stroke:#000000;stroke-opacity:1;stroke-width:4;stroke-linecap:butt;stroke-linejoin:miter;stroke-miterlimit:4;stroke-dasharray:none"
             id="path3217" /><path
             d="m 1828.36,673.387 -103.48,114.73"
             style="fill:none;stroke:#000000;stroke-opacity:1;stroke-width:8;stroke-linecap:butt;stroke-linejoin:miter;stroke-miterlimit:4;stroke-dasharray:none"
             id="path3219" /><path
             d="m 1746.33,764.359 22.62,-1.168 -49.42,30.86 25.63,-52.313"
             style="fill:#000000;fill-opacity:1;fill-rule:evenodd;stroke:none"
             id="path3221" /><path
             d="m 1746.32,764.359 22.63,-1.168 -49.42,30.86 25.62,-52.305 1.17,22.613 z"
             style="fill:none;stroke:#000000;stroke-opacity:1;stroke-width:3.99999;stroke-linecap:butt;stroke-linejoin:miter;stroke-miterlimit:4;stroke-dasharray:none"
             id="path3223" /><path
             d="m 1354.73,538.191 325.58,-34.73"
             style="fill:url(#pattern3225);fill-opacity:1;fill-rule:nonzero;stroke:none"
             id="path3229" /><path
             d="m 1354.73,538.188 325.58,-34.723"
             style="fill:none;stroke:#ff0000;stroke-opacity:1;stroke-width:8;stroke-linecap:butt;stroke-linejoin:miter;stroke-miterlimit:4;stroke-dasharray:none"
             id="path3231" /><path
             d="m 1386.52,534.789 17.62,14.223 -57.38,-9.961 53.98,-21.84"
             style="fill:#ff0000;fill-opacity:1;fill-rule:evenodd;stroke:none"
             id="path3233" /><path
             d="m 1386.53,534.793 17.61,14.211 -57.38,-9.961 53.98,-21.828 -14.21,17.578 z"
             style="fill:none;stroke:#ff0000;stroke-opacity:1;stroke-width:4;stroke-linecap:butt;stroke-linejoin:miter;stroke-miterlimit:4;stroke-dasharray:none"
             id="path3235" /><path
             d="M 1348.28,518.93 1754.22,336.352"
             style="fill:url(#pattern3237);fill-opacity:1;fill-rule:nonzero;stroke:none"
             id="path3241" /><path
             d="M 1348.28,518.934 1754.22,336.355"
             style="fill:none;stroke:#ff0000;stroke-opacity:1;stroke-width:8;stroke-linecap:butt;stroke-linejoin:miter;stroke-miterlimit:4;stroke-dasharray:none"
             id="path3243" /><path
             d="m 1377.46,505.809 21.17,8 -57.65,8.402 44.53,-37.582"
             style="fill:#ff0000;fill-opacity:1;fill-rule:evenodd;stroke:none"
             id="path3245" /><path
             d="m 1377.46,505.813 21.18,8.003 -57.66,8.391 44.52,-37.566 -8.04,21.172 z"
             style="fill:none;stroke:#ff0000;stroke-opacity:1;stroke-width:4;stroke-linecap:butt;stroke-linejoin:miter;stroke-miterlimit:4;stroke-dasharray:none"
             id="path3247" /><path
             d="M 1300.08,663.539 1657.81,811.98"
             style="fill:url(#pattern3249);fill-opacity:1;fill-rule:nonzero;stroke:none"
             id="path3253" /><path
             d="m 1300.08,663.547 357.73,148.43"
             style="fill:none;stroke:#ff0000;stroke-opacity:1;stroke-width:8;stroke-linecap:butt;stroke-linejoin:miter;stroke-miterlimit:4;stroke-dasharray:none"
             id="path3255" /><path
             d="m 1329.65,675.809 8.63,20.902 -45.58,-36.25 57.85,6.711"
             style="fill:#ff0000;fill-opacity:1;fill-rule:evenodd;stroke:none"
             id="path3257" /><path
             d="m 1329.65,675.805 8.64,20.898 -45.59,-36.246 57.85,6.719 -20.9,8.629 z"
             style="fill:none;stroke:#ff0000;stroke-opacity:1;stroke-width:4;stroke-linecap:butt;stroke-linejoin:miter;stroke-miterlimit:4;stroke-dasharray:none"
             id="path3259" /><path
             d="m 935.199,584.051 -375,-41.129"
             style="fill:url(#pattern3261);fill-opacity:1;fill-rule:nonzero;stroke:none"
             id="path3265" /><path
             d="m 935.199,584.047 -375,-41.133"
             style="fill:none;stroke:#ff0000;stroke-opacity:1;stroke-width:8;stroke-linecap:butt;stroke-linejoin:miter;stroke-miterlimit:4;stroke-dasharray:none"
             id="path3267" /><path
             d="m 903.398,580.57 -14.179,-17.648 53.91,22.027 -57.391,9.762"
             style="fill:#ff0000;fill-opacity:1;fill-rule:evenodd;stroke:none"
             id="path3269" /><path
             d="m 903.395,580.57 -14.172,-17.656 53.902,22.035 -57.383,9.766 17.653,-14.145 z"
             style="fill:none;stroke:#ff0000;stroke-opacity:1;stroke-width:4;stroke-linecap:butt;stroke-linejoin:miter;stroke-miterlimit:4;stroke-dasharray:none"
             id="path3271" /><path
             d="m 935.781,612.25 -397.5,196.68"
             style="fill:url(#pattern3273);fill-opacity:1;fill-rule:nonzero;stroke:none"
             id="path3277" /><path
             d="m 935.781,612.254 -397.5,196.68"
             style="fill:none;stroke:#ff0000;stroke-opacity:1;stroke-width:8;stroke-linecap:butt;stroke-linejoin:miter;stroke-miterlimit:4;stroke-dasharray:none"
             id="path3279" /><path
             d="m 907.109,626.43 -21.449,-7.219 57.309,-10.512 -43.129,39.18"
             style="fill:#ff0000;fill-opacity:1;fill-rule:evenodd;stroke:none"
             id="path3281" /><path
             d="m 907.113,626.43 -21.449,-7.223 57.297,-10.512 -43.113,39.18 7.265,-21.445 z"
             style="fill:none;stroke:#ff0000;stroke-opacity:1;stroke-width:4;stroke-linecap:butt;stroke-linejoin:miter;stroke-miterlimit:4;stroke-dasharray:none"
             id="path3283" /><path
             d="M 1086.84,519.051 518.98,291.512"
             style="fill:url(#pattern3285);fill-opacity:1;fill-rule:nonzero;stroke:none"
             id="path3289" /><path
             d="M 1086.84,519.047 518.98,291.504"
             style="fill:none;stroke:#ff0000;stroke-opacity:1;stroke-width:8;stroke-linecap:butt;stroke-linejoin:miter;stroke-miterlimit:4;stroke-dasharray:none"
             id="path3291" /><path
             d="m 1057.15,507.129 -8.91,-20.777 46.02,35.668 -57.93,-5.981"
             style="fill:#ff0000;fill-opacity:1;fill-rule:evenodd;stroke:none"
             id="path3293" /><path
             d="m 1057.15,507.133 -8.91,-20.781 46.01,35.66 -57.92,-5.965 20.82,-8.914 z"
             style="fill:none;stroke:#ff0000;stroke-opacity:1;stroke-width:4;stroke-linecap:butt;stroke-linejoin:miter;stroke-miterlimit:4;stroke-dasharray:none"
             id="path3295" /><path
             d="M 916.52,316.59 528.629,285.059"
             style="fill:url(#pattern3297);fill-opacity:1;fill-rule:nonzero;stroke:none"
             id="path3301" /><path
             d="M 916.52,316.586 528.629,285.066"
             style="fill:none;stroke:#ff0000;stroke-opacity:1;stroke-width:8;stroke-linecap:butt;stroke-linejoin:miter;stroke-miterlimit:4;stroke-dasharray:none"
             id="path3303" /><path
             d="m 884.609,314.012 -14.648,-17.274 54.527,20.512 -57.109,11.41"
             style="fill:#ff0000;fill-opacity:1;fill-rule:evenodd;stroke:none"
             id="path3305" /><path
             d="m 884.613,314.012 -14.652,-17.266 54.531,20.504 -57.105,11.406 17.226,-14.644 z"
             style="fill:none;stroke:#ff0000;stroke-opacity:1;stroke-width:4;stroke-linecap:butt;stroke-linejoin:miter;stroke-miterlimit:4;stroke-dasharray:none"
             id="path3307" /><g
             id="g3309"
             transform="scale(1.00756,-0.992445)"><path
               d="m 641.831,-593.531 c 0,247.609 -142.711,448.344 -318.803,448.344 -176.087,0 -318.84088,-200.735 -318.84088,-448.344 0,-247.621 142.75388,-448.349 318.84088,-448.349 176.092,0 318.803,200.728 318.803,448.349 z"
               style="fill:none;stroke:#000000;stroke-opacity:1;stroke-width:8.26741;stroke-linecap:butt;stroke-linejoin:miter;stroke-miterlimit:4;stroke-dasharray:33.0696,8.26741;stroke-dashoffset:0"
               id="path3311" /></g><g
             id="g3313"
             transform="scale(1.00756,-0.992445)"><path
               d="m 2195.22,-601.639 c 0,247.609 -142.76,448.34 -318.85,448.34 -176.09,0 -318.84,-200.731 -318.84,-448.34 0,-247.621 142.75,-448.351 318.84,-448.351 176.09,0 318.85,200.73 318.85,448.351 z"
               style="fill:none;stroke:#000000;stroke-opacity:1;stroke-width:8.26741;stroke-linecap:butt;stroke-linejoin:miter;stroke-miterlimit:4;stroke-dasharray:33.0696,8.26741;stroke-dashoffset:0"
               id="path3315" /></g><g
             id="g3317"
             transform="scale(1.00756,-0.992445)"><path
               d="m 1420.13,-585.423 c 0,247.609 -142.75,448.344 -318.84,448.344 -176.089,0 -318.842,-200.735 -318.842,-448.344 0,-247.66 142.753,-448.387 318.842,-448.387 176.09,0 318.84,200.727 318.84,448.387 z"
               style="fill:none;stroke:#000000;stroke-opacity:1;stroke-width:8.26741;stroke-linecap:butt;stroke-linejoin:miter;stroke-miterlimit:4;stroke-dasharray:33.0696,8.26741;stroke-dashoffset:0"
               id="path3319" /></g></g></g></g></g></svg>